<?xml version="1.0" encoding="utf-8"?>
<!-- Generator: Adobe Illustrator 24.1.1, SVG Export Plug-In . SVG Version: 6.00 Build 0)  -->
<svg version="1.1" id="Layer_1" xmlns="http://www.w3.org/2000/svg" xmlns:xlink="http://www.w3.org/1999/xlink" x="0px" y="0px"
	 viewBox="0 0 55 55" style="enable-background:new 0 0 55 55;" xml:space="preserve">
<style type="text/css">
	.st0{fill:#444444;}
</style>
<g>
	<path class="st0" d="M33.5,18.8c-2-2.4-4.9-3.9-8.1-4.2s-6.3,0.7-8.7,2.8c-2.4,2-3.9,4.9-4.2,8.1s0.7,6.3,2.8,8.7
		c2.4,2.8,5.7,4.3,9.1,4.3c2.7,0,5.4-0.9,7.6-2.8C37.1,31.4,37.8,23.9,33.5,18.8L33.5,18.8z"/>
	<path class="st0" d="M40.8,38.1c0.1-0.5-0.1-1.1-0.5-1.5L38.9,35c3.6-6.1,2.9-13.8-1.6-19.2l0,0c-2.9-3.4-7-5.5-11.4-5.9
		c-4.5-0.4-8.8,1-12.3,3.8c-3.4,2.9-5.5,7-5.9,11.4c-0.4,4.5,1,8.8,3.8,12.2c4.6,5.5,12,7.4,18.6,4.9l1.4,1.7
		c0.4,0.5,0.9,0.7,1.6,0.7c0.3,0,0.7-0.1,1.1-0.3c0.6,0.5,1.4,0.9,2.3,0.9c0.1,0,0.3,0,0.3,0c0.9,0,1.8-0.3,2.6-0.9
		c0.8-0.7,1.3-1.6,1.4-2.7c0.1-0.9-0.1-1.7-0.5-2.4C40.6,38.9,40.8,38.5,40.8,38.1z M32.6,43.1l-2-2.4l-0.4,0.1
		c-6.2,2.5-13.3,0.7-17.6-4.5C9.9,33.3,8.6,29.3,9,25.2c0.3-4.1,2.3-7.8,5.5-10.5c3.2-2.6,7.2-3.9,11.3-3.6
		c4.1,0.3,7.8,2.3,10.5,5.5l0,0c4.3,5.1,4.9,12.4,1.3,18.1L37.2,35l2,2.4c0.1,0.1,0.2,0.3,0.2,0.5s-0.1,0.4-0.3,0.5l-5.6,4.7
		C33.3,43.5,32.9,43.4,32.6,43.1z M38.6,43.4c-0.5,0.5-1.3,0.7-2,0.6c-0.5-0.1-0.9-0.2-1.4-0.5l4-3.4c0.2,0.5,0.3,0.9,0.3,1.4
		C39.5,42.3,39.1,42.9,38.6,43.4z"/>
</g>
</svg>
